<?xml version="1.0" standalone="no"?>
<!DOCTYPE svg PUBLIC "-//W3C//DTD SVG 1.1//EN" "http://www.w3.org/Graphics/SVG/1.1/DTD/svg11.dtd">
<svg t="1690903861164" class="icon" viewBox="0 0 1024 1024" version="1.1"
  xmlns="http://www.w3.org/2000/svg" p-id="38624" xmlns:xlink="http://www.w3.org/1999/xlink"
  width="32" height="32">
  <path
    d="M512 38.912q-128 0-238.592 64.512-106.496 63.488-169.984 169.984Q38.912 384 38.912 512t64.512 238.592q63.488 106.496 169.984 169.984Q384 985.088 512 985.088t238.592-64.512q106.496-63.488 169.984-169.984Q985.088 640 985.088 512t-64.512-238.592q-63.488-106.496-169.984-169.984Q640 38.912 512 38.912z m124.928 858.112h-4.096q-8.192 1.024-14.336-5.12t-6.144-14.336v-111.616q0-20.48-5.632-40.448t-20.992-34.304q40.96-4.096 79.872-18.432 32.768-13.312 57.344-38.4t35.84-58.88q12.288-40.96 11.264-83.968 0-29.696-10.24-58.368t-31.744-50.176q5.12-11.264 7.168-23.04t2.048-24.064q0-15.36-3.584-30.72t-8.704-29.696q-2.048-1.024-5.12-1.024h-4.096q-13.312 0-27.136 4.096t-27.136 10.24-25.088 13.312-23.04 15.36q-101.376-28.672-202.752 0-11.264-8.192-23.552-15.36t-25.6-13.312-26.624-10.24-26.624-4.096h-5.12q-2.048 0-4.096 1.024-5.12 14.336-8.704 29.696t-3.584 30.72q0 12.288 2.048 24.064t6.144 23.04q-20.48 21.504-31.232 50.176t-9.728 58.368q-1.024 43.008 11.264 82.944 10.24 33.792 34.816 59.392t57.344 38.912q38.912 14.336 79.872 18.432-11.264 10.24-17.408 24.576t-8.192 29.696q-21.504 10.24-45.056 10.752t-41.984-12.288-30.72-32.256q-5.12-8.192-11.264-15.36t-14.336-12.8-17.408-9.728-18.432-4.096l-5.12 1.024q-3.072 0-6.144 0.512t-5.12 2.048-2.048 3.584q0 6.144 5.12 10.24l10.24 7.168q8.192 6.144 14.848 12.8t12.288 13.824 9.216 14.848 8.704 17.92q11.264 28.672 37.888 44.032t57.344 15.36q11.264 0 21.504-1.024l19.456-4.096v68.608q1.024 9.216-5.632 15.36t-14.848 5.12h-3.072q-93.184-29.696-161.792-99.328-67.584-68.608-98.304-158.72-30.72-93.184-15.36-190.464t73.728-176.128q56.32-76.8 141.312-120.832Q413.696 106.496 512 106.496t185.344 45.056q84.992 44.032 141.312 120.832 58.368 78.848 73.728 176.128t-15.36 190.464q-30.72 90.112-97.28 158.72-69.632 69.632-162.816 99.328z"
    p-id="38625" fill="black"></path>
</svg>