<?xml version="1.0" standalone="no"?><!DOCTYPE svg PUBLIC "-//W3C//DTD SVG 1.1//EN" "http://www.w3.org/Graphics/SVG/1.1/DTD/svg11.dtd"><svg t="1691075768660" class="icon" viewBox="0 0 1024 1024" version="1.1" xmlns="http://www.w3.org/2000/svg" p-id="43746" xmlns:xlink="http://www.w3.org/1999/xlink" width="32" height="32"><path d="M178.19 429.655l1.158 0.19 1.153 0.189c6.279 1.022 12.33 2.079 17.926 3.878 6.615 2.143 12.646 4.995 18.243 8.283l0.38 0.224v-8.832h60.048v155.618c0 2.198 0.012 4.41 0.029 6.63l0.078 8.438c0.02 2.073 0.039 4.147 0.05 6.216l0.016 3.1v3.089l-0.012 2.059-0.019 2.052-0.03 2.044c-0.005 0.34-0.012 0.68-0.018 1.019l-0.046 2.031-0.028 1.012-0.064 2.016-0.037 1.004-0.083 2-0.097 1.986c-0.763 14.522-2.686 27.98-6.917 38.901-8.318 21.41-20.444 34.944-37.76 46.391l-1.216 0.796-1.233 0.789a168.276 168.276 0 0 1-5.106 3.101c-8.915 5.208-19.342 8.21-31.049 10.641l-1.859 0.38-0.937 0.187-1.89 0.368-0.954 0.181-1.004 0.19-13.737 0.874-17.43 0.3c-3.004-0.526-5.928-0.939-8.779-1.319l-4.959-0.653-1.057-0.143-2.097-0.292c-7.299-1.042-14.175-2.31-20.728-4.621-16.02-5.644-28.738-13.806-40.717-23.35l-0.797-0.639-22.425-21.796 15.106-15.174 26.13-28.325 18.64 13.905c-0.016 1.124 0.113 2.202 0.533 3.134 0.742 1.645 2.424 2.91 4.107 4.035l1.46 0.962c0.378 0.25 0.74 0.496 1.073 0.74l0.836 0.637c10.454 8.017 25.074 13.797 40.23 15.068 12.385 1.04 25.254-0.947 36.324-7.901 9.394-5.9 14.161-14.207 16.525-24.398l0.218-0.976a73.25 73.25 0 0 0 1.027-6.091l0.128-1.053 0.117-1.064 0.055-0.536 0.101-1.08 0.091-1.089c0.015-0.182 0.029-0.365 0.042-0.549l0.03-0.45-0.636 0.344a99.238 99.238 0 0 1-22.704 8.73l-0.915 0.223c-27.613 6.803-52.806 2.655-73.644-7.49-24.95-12.147-43.554-33.058-52.679-54.312l-0.344-0.811-0.348-0.842-0.353-0.87-0.356-0.9-0.359-0.925-0.36-0.952-0.36-0.977-0.361-1.002-0.36-1.025c-0.12-0.345-0.24-0.694-0.358-1.047l-0.355-1.069-0.352-1.088-0.174-0.552-0.345-1.118a129.38 129.38 0 0 1-0.17-0.565l-0.336-1.144-0.165-0.579-0.325-1.168-0.316-1.184-0.308-1.197-0.297-1.211c-2.191-9.126-3.464-19.273-2.185-28.594l0.089-0.62c0.247-1.638 0.432-3.245 0.597-4.826l0.237-2.353c0.584-5.882 1.25-11.49 2.824-16.83 9.607-32.609 29.53-56.827 58.843-69.587l1.002-0.43 0.509-0.215 1.033-0.428 1.055-0.425a126.71 126.71 0 0 1 1.621-0.633l1.105-0.417 0.56-0.207 1.134-0.41 1.153-0.403 0.583-0.2 1.18-0.393 1.196-0.387c0.2-0.064 0.402-0.127 0.605-0.19l1.221-0.375c12.914-3.883 28.485-6.27 44.149-3.673z m839.118-29.657l-54.534 40.966-8.678-20.74c-0.464-1.109-1.506-2.028-2.547-2.826l-0.519-0.39-0.742-0.552a17.45 17.45 0 0 1-0.448-0.348c-0.542-0.438-1.089-0.873-1.642-1.306l-1.112-0.862a122.019 122.019 0 0 0-4.01-2.948l-1.18-0.818c-17.015-11.647-38.704-19.528-66.606-11.266-31.3 9.27-50.486 30.661-60.957 60.777a50.83 50.83 0 0 0-1.082 3.588l-0.269 1.034c-0.267 1.059-0.53 2.188-0.787 3.373l-0.255 1.203-0.126 0.614-0.247 1.251-0.24 1.28-0.235 1.302-0.227 1.324-0.219 1.34c-0.072 0.45-0.142 0.901-0.21 1.354l-0.201 1.364c-0.066 0.455-0.13 0.912-0.191 1.37l-0.18 1.371-0.17 1.37-0.08 0.685-0.15 1.362-0.07 0.678-0.131 1.345-0.117 1.33-0.053 0.658-0.094 1.3c-0.03 0.43-0.056 0.855-0.08 1.276l-0.062 1.247a81 81 0 0 0-0.082 3.535c0 14.838 2.21 25.38 6.635 36.75 12.71 32.582 35.753 52.58 74.737 59.052 6.21 1.042 15.635 1.37 22.116 0.275l2.735-0.46 2.58-0.429 1.702-0.29c3.954-0.693 7.765-1.495 11.224-2.84 9.173-3.585 18.579-8.76 24.396-15.897l21.694-28.585 13.76 13.369L1022 579.74c-6.568 26.03-33.627 51.425-70.013 64.406l-1.105 0.39c-26.083 9.079-56.61 11.81-86.34 4.454-42.809-10.575-77.029-37.582-97.936-72.65-20.969-35.17-28.535-78.46-17.897-121.37 12.069-48.708 41.324-85.786 83.25-104.225a194.711 194.711 0 0 1 38.966-12.502l23.032-2.537c62.083-1.335 103.993 25.583 123.35 64.292z m-563.515-53.59a108.903 108.903 0 0 1 42.383 20.78c12.38 9.939 22.261 29.143 25.404 50.672 2.836 19.424 0.194 40.092-8.915 55.832-0.63 1.087-1.26 2.145-1.892 3.175l-0.76 1.223c-11.295 17.95-23.413 27.277-42.563 33.626l-1.302 0.424-1.323 0.415-0.677 0.206L543.15 643.57v2.544h-72.874l-73.31-124.804h-18.118v124.974l-62.423-0.603 0.3-303.19h81.241l7.235-0.01 3.35 0.006 2.224 0.01 2.216 0.02 1.104 0.012 2.2 0.031c13.169 0.222 25.722 1.012 36.596 3.626l0.902 0.222z m230.67 2.98c24.446 7.26 42.836 20.78 52.682 43.606 2.897 6.705 4.507 13.89 5.908 21.899l0.333 1.938 0.328 1.97 0.378 2.313c1.583 9.779 0.868 19.841-0.94 28.908l-0.265 1.288-0.28 1.274c-0.382 1.688-0.799 3.336-1.243 4.935l-0.339 1.19-0.347 1.17c-0.118 0.387-0.237 0.77-0.357 1.15l-0.364 1.13-0.371 1.106-0.188 0.545-0.38 1.073a94.448 94.448 0 0 1-1.367 3.562l-0.397 0.959-0.399 0.93c-9.784 22.593-26.377 35.645-48.21 42.91-12.198 4.06-26.27 6.122-41.73 7.15l-2.167 0.137c-1.087 0.065-2.181 0.125-3.282 0.181l-2.21 0.106-2.227 0.094-2.244 0.084-2.26 0.073-2.276 0.064-1.144 0.028-2.3 0.05-1.155 0.022-3.49 0.055-3.523 0.038-2.367 0.018-3.576 0.017-3.607 0.006-3.584-0.004-0.265 124.751h-60.552l-1.537-2.544V342.413c5.812 0.05 11.635 0.085 17.435 0.063 6.554-0.024 13.137-0.119 19.698-0.228l4.917-0.083c3.959-0.068 7.905-0.131 11.83-0.18l2.614-0.03 3.854-0.036 3.837-0.022 2.548-0.007h2.538l2.53 0.01 2.518 0.018c0.838 0.007 1.674 0.016 2.509 0.027l2.496 0.037 1.244 0.022 2.48 0.053c3.708 0.089 7.374 0.216 10.987 0.392l2.402 0.125c16.355 0.905 31.592 2.868 44.877 6.814zM163.33 486.85c-3.911 0-7.827 1.2-11.383 2.666l-0.483 0.202c-14.059 5.778-24.816 17.49-29.428 32.1l-0.168 0.543c-4.053 12.933-2.859 24.677 1.465 34.52 5.4 12.289 15.37 21.658 25.481 26.902l0.783 0.398 0.592 0.291 0.62 0.297 0.647 0.3 0.671 0.3 0.696 0.299c0.236 0.099 0.476 0.198 0.719 0.296l0.74 0.291 0.763 0.285c4.374 1.589 9.703 2.749 15.084 1.86l1.184-0.201 1.175-0.21 1.164-0.218 1.154-0.228c0.192-0.038 0.383-0.077 0.574-0.117l1.138-0.242 1.128-0.252 1.117-0.262 1.106-0.272 1.094-0.283a85.502 85.502 0 0 0 3.737-1.08l1.04-0.336c12.408-4.096 22.086-10.865 27.282-22.577a65.966 65.966 0 0 0 4.144-13.118c1.217-5.72 1.03-13.736-0.066-19.415-2.657-13.816-7.672-25.086-16.869-32.464-8.823-7.078-21.089-10.275-36.9-10.275z m215.502-84.508v59.188l2.06 0.056 4.124 0.127 7.351 0.249 1.835 0.059c0.725 0.022 1.448 0.044 2.17 0.064l1.444 0.04 2.108 0.05 1.998 0.038 1.99 0.028 1.319 0.011 1.969 0.006 1.305-0.005 1.298-0.012 1.292-0.02 1.283-0.027c0.214-0.006 0.427-0.011 0.64-0.018l1.271-0.04 1.263-0.052 1.254-0.06c0.416-0.022 0.831-0.046 1.244-0.071l1.235-0.083c0.41-0.029 0.817-0.06 1.224-0.093l1.213-0.106c0.402-0.037 0.803-0.076 1.201-0.118l1.19-0.13c0.79-0.092 1.57-0.193 2.343-0.303l1.152-0.172c10.496-1.649 19.28-5.17 24.794-12.257l0.337-0.438 0.342-0.458 0.346-0.479 0.174-0.246 0.348-0.509 0.347-0.528 0.344-0.546c2.34-3.803 4.361-8.924 3.417-14.917-1.846-11.71-7.139-18.78-15.584-22.548-7.5-3.346-16.478-4.88-26.486-5.529l-1.547-0.093-0.78-0.041-1.571-0.074-1.587-0.061-1.602-0.05-1.616-0.04-1.63-0.03-1.645-0.02-1.658-0.012-1.67-0.005-2.53 0.006-1.703 0.01-2.576 0.026-3.473 0.047-10.664 0.173c-0.3 0.005-0.602 0.01-0.903 0.013z m226.707 0.027v59.128l1.988 0.045 3.065 0.078 6.608 0.183 2.963 0.075 3.484 0.072 2 0.03 1.987 0.018 1.975 0.007 1.962-0.009 1.299-0.014 1.292-0.023 1.283-0.03 1.276-0.04 1.267-0.049c0.42-0.018 0.84-0.037 1.258-0.059l1.248-0.07 1.238-0.08c14.178-0.992 26.268-4.287 33.175-13.597l0.318-0.438 0.325-0.46 0.33-0.484 0.165-0.25 0.332-0.516 0.331-0.536c2.202-3.646 4.223-8.652 3.353-14.29-1.844-11.815-6.85-19.056-15.142-22.878-8.436-3.89-18.837-5.332-30.528-5.798l-1.602-0.057c-0.537-0.018-1.076-0.033-1.618-0.047l-1.633-0.036-1.648-0.026-1.662-0.018-1.676-0.01h-2.54l-2.57 0.012-3.47 0.031-9.777 0.13-0.656 0.006zM116.544 294l-46.472 46.894h162.652l-16.554-16.888h27.22l29.36 30.006-29.36 30.005h-27.22l16.558-16.892H70.068l46.476 46.898H61.457L2 354.012 61.457 294h55.087z" fill="#000000" p-id="43747"></path></svg>