<?xml version="1.0" standalone="no"?><!DOCTYPE svg PUBLIC "-//W3C//DTD SVG 1.1//EN" "http://www.w3.org/Graphics/SVG/1.1/DTD/svg11.dtd"><svg t="1691073524081" class="icon" viewBox="0 0 1024 1024" version="1.1" xmlns="http://www.w3.org/2000/svg" p-id="8772" xmlns:xlink="http://www.w3.org/1999/xlink" width="32" height="32"><path d="M209.6 711.1c-28.9-0.8-51.7-24.3-51.1-52.5 0.6-28.3 24.3-50.9 53.2-50.6 28.9 0.3 52.2 23.2 52.2 51.6-0.5 28.8-24.8 51.8-54.3 51.5z m792-266.7c-36.9-18.4-79.6-22.1-119.1-10.5C875 394 851.8 358.6 818 335l-12.8-9.8-10.8 11.9c-20.5 27.1-29.5 60.7-25.2 94.1 1.7 22.8 10 44.8 24.1 63.2-11 6.2-22.6 11.1-34.6 14.9-23 7.4-47.1 11.2-71.4 11.3H13.1l-1.4 14.9c-5.3 49.1 2.9 98.8 23.7 143.7l9.2 17.9 1 1.7C109.1 801 235.5 854 356.8 854c234.8 0 413.3-109.7 502.3-320.4 59.4 3 120.2-13.8 149.3-67.7l7.4-13.8-14.1-7.8v0.1h-0.1z m-565.8-200h95.3V149h-95.3v95.4z m0 127.2h95.3v-95.4h-95.3v95.4zM563 498.9h95.3v-95.4H563v95.4z m-127.2 0h95.3v-95.4h-95.3v95.4z m-127 0h95.3v-95.4h-95.3v95.4z m0-127.3h95.3v-95.4h-95.3v95.4z m-126.9 0h95.3v-95.4h-95.3v95.4z m0 127.3h95.3v-95.4h-95.3v95.4z m-126.9 0h95.3v-95.4H55v95.4z m145.1 145.6c-15.2 0.4-27.1 13-26.8 28.1s12.7 27.3 27.8 27.2 27.3-12.4 27.4-27.6c-0.1-7.5-3.1-14.5-8.5-19.8-5.3-5.1-12.5-8-19.9-7.9z" fill="#000000" p-id="8773"></path></svg>