<?xml version="1.0" standalone="no"?><!DOCTYPE svg PUBLIC "-//W3C//DTD SVG 1.1//EN" "http://www.w3.org/Graphics/SVG/1.1/DTD/svg11.dtd"><svg t="1691074882221" class="icon" viewBox="0 0 1024 1024" version="1.1" xmlns="http://www.w3.org/2000/svg" p-id="31931" xmlns:xlink="http://www.w3.org/1999/xlink" width="32" height="32"><path d="M578.587 758.356c-54.18 28.236-84.02 27.89-126.836 7.46-42.582-20.431-398.41-169.075-398.41-169.075v107.78c0 9.3 12.972 19.054 37.076 30.644 48.668 23.306 318.752 132.227 361.219 152.775 42.586 20.431 72.657 20.547 126.836-7.46 54.175-28.236 307.728-132.345 356.742-158.057 24.908-12.966 35.925-23.186 35.925-32.254V583.768h-0.115c-0.115-0.114-338.495 146.234-392.438 174.587z m0 0z" fill="#000000" p-id="31932"></path><path d="M578.587 606.954c-54.18 28.236-84.02 27.89-126.836 7.46-42.582-20.547-398.41-169.303-398.41-169.303v107.787c0 9.292 12.972 19.054 37.076 30.644 48.668 23.414 318.752 132.345 361.219 152.889 42.586 20.431 72.657 20.547 126.836-7.46 54.175-28.236 307.728-132.345 356.742-158.057 24.908-12.97 35.925-23.184 35.925-32.253V432.256h-0.115c-0.115-0.001-338.495 146.348-392.438 174.698z m0 0z" fill="#000000" p-id="31933"></path><path d="M971.251 290.388c0.46-9.3-11.936-17.565-36.386-26.519-47.749-17.559-299.923-117.884-348.246-135.556-48.439-17.68-68.066-16.875-124.769 3.328S136.553 257.33 88.803 276.037c-24.103 9.414-35.81 18.255-35.121 27.663v-0.114 106.06s355.598 149.792 398.41 170.223c42.581 20.431 72.657 20.547 126.836-7.46 54.06-28.467 392.668-177.223 392.668-177.223l-0.343-104.797z m-118.794 2.866l-139.463 54.979-125.682-49.698 139.229-55.099 125.917 49.818zM594.883 345.48l-64.393 94.24-148.304-61.525 212.698-32.715zM483.197 202.233l-20.547-37.995 64.169 25.025 60.377-19.858-16.415 39.138 61.634 23.186-79.542 8.151-17.909 43.046-28.69-47.87-91.829-8.15 68.755-24.674z m-158.396 53.371c62.784 0 113.746 19.627 113.746 44.076 0 24.22-50.961 44.076-113.746 44.076-62.788 0-113.749-19.626-113.749-44.076 0.114-24.103 50.96-44.076 113.749-44.076z m0 0z" fill="#000000" p-id="31934"></path></svg>