<?xml version="1.0" standalone="no"?>
<!DOCTYPE svg PUBLIC "-//W3C//DTD SVG 1.1//EN" "http://www.w3.org/Graphics/SVG/1.1/DTD/svg11.dtd">
<svg t="1690901433094" class="icon" viewBox="0 0 1024 1024" version="1.1"
  xmlns="http://www.w3.org/2000/svg" p-id="51525" xmlns:xlink="http://www.w3.org/1999/xlink"
  width="32" height="32">
  <path
    d="M910.933333 689.066667c-51.2 83.2-123.733333 134.4-211.2 166.4-66.133333 25.6-138.666667 34.133333-209.066666 29.866666-72.533333-4.266667-147.2-23.466667-211.2-64s-110.933333-100.266667-136.533334-170.666666c-21.333333-74.666667-19.2-155.733333 0-228.266667 21.333333-70.4 59.733333-134.4 110.933334-185.6 59.733333-57.6 132.266667-93.866667 211.2-108.8 68.266667-12.8 140.8-10.666667 206.933333 6.4 57.6 14.933333 104.533333 40.533333 142.933333 85.333333 36.266667 40.533333 61.866667 89.6 68.266667 145.066667 6.4 57.6-4.266667 117.333333-29.866667 170.666667-34.133333 70.4-98.133333 136.533333-174.933333 172.8-10.666667 4.266667-23.466667 6.4-32 2.133333-4.266667-4.266667-8.533333-10.666667-6.4-21.333333 19.2-142.933333 61.866667-260.266667 113.066667-401.066667 4.266667-10.666667-6.4-32-27.733334-38.4-21.333333-8.533333-36.266667 4.266667-38.4 8.533333-2.133333 8.533333-19.2 51.2-25.6 74.666667-12.8-32-38.4-61.866667-68.266666-78.933333-34.133333-19.2-74.666667-23.466667-113.066667-14.933334-42.666667 8.533333-81.066667 29.866667-110.933333 59.733334-70.4 72.533333-117.333333 168.533333-113.066667 268.8 2.133333 59.733333 21.333333 117.333333 66.133333 157.866666 38.4 36.266667 87.466667 46.933333 138.666667 34.133334 46.933333-12.8 85.333333-40.533333 117.333333-76.8v34.133333c0 21.333333 8.533333 40.533333 25.6 55.466667 14.933333 12.8 36.266667 17.066667 66.133334 10.666666 102.4-25.6 204.8-128 253.866666-226.133333 27.733333-57.6 36.266667-125.866667 29.866667-187.733333-6.4-61.866667-27.733333-119.466667-66.133333-170.666667-46.933333-64-106.666667-100.266667-183.466667-121.6-78.933333-21.333333-160-25.6-243.2-10.666667-98.133333 17.066667-185.6 64-253.866667 134.4C149.333333 258.133333 106.666667 330.666667 85.333333 409.6c-25.6 87.466667-25.6 183.466667 8.533334 270.933333 29.866667 74.666667 81.066667 142.933333 149.333333 189.866667 72.533333 49.066667 162.133333 70.4 249.6 76.8 89.6 6.4 181.333333-6.4 264.533333-40.533333 70.4-29.866667 134.4-74.666667 187.733334-142.933334 8.533333-12.8 23.466667-40.533333 19.2-55.466666-12.8-34.133333-44.8-32-53.333334-19.2zM618.666667 456.533333c-10.666667 68.266667-44.8 140.8-93.866667 183.466667-23.466667 23.466667-49.066667 38.4-72.533333 46.933333-27.733333 8.533333-55.466667 6.4-76.8-6.4s-38.4-38.4-49.066667-78.933333c-17.066667-70.4 6.4-151.466667 42.666667-209.066667 25.6-38.4 64-74.666667 108.8-89.6 46.933333-14.933333 93.866667-2.133333 123.733333 36.266667 21.333333 32 23.466667 81.066667 17.066667 117.333333z"
    fill="black" p-id="51526"></path>
</svg>