<?xml version="1.0" standalone="no"?><!DOCTYPE svg PUBLIC "-//W3C//DTD SVG 1.1//EN" "http://www.w3.org/Graphics/SVG/1.1/DTD/svg11.dtd"><svg t="1691076541424" class="icon" viewBox="0 0 1024 1024" version="1.1" xmlns="http://www.w3.org/2000/svg" p-id="44803" xmlns:xlink="http://www.w3.org/1999/xlink" width="32" height="32"><path d="M806.72 774.72l-399.072 118.976a16.8 16.8 0 0 1-21.344-19.392l142.592-688.352a13.76 13.76 0 0 1 25.888-3.008l263.968 565.152a19.2 19.2 0 0 1-12.032 26.624z m68.448-28.096L569.6 92.256A48.992 48.992 0 0 0 527.712 64a48.416 48.416 0 0 0-44.8 23.328L151.552 628.736a50.944 50.944 0 0 0 0.576 54.4l162.048 253.088a52.096 52.096 0 0 0 58.56 21.696l470.4-140.256a51.2 51.2 0 0 0 32-70.976z" fill="#000000" p-id="44804"></path></svg>