<?xml version="1.0" standalone="no"?>
<!DOCTYPE svg PUBLIC "-//W3C//DTD SVG 1.1//EN" "http://www.w3.org/Graphics/SVG/1.1/DTD/svg11.dtd">
<svg t="1690901623615" class="icon" viewBox="0 0 1024 1024" version="1.1"
  xmlns="http://www.w3.org/2000/svg" p-id="72361" xmlns:xlink="http://www.w3.org/1999/xlink"
  width="32" height="32">
  <path
    d="M512 344c25.64 0 49.75 9.99 67.88 28.12S608 414.36 608 440s-9.99 49.75-28.12 67.88S537.64 536 512 536s-49.75-9.99-67.88-28.12c-37.43-37.43-37.43-98.33 0-135.76C462.25 353.99 486.36 344 512 344m0-64c-40.95 0-81.9 15.62-113.14 46.86-62.48 62.48-62.48 163.79 0 226.27C430.1 584.38 471.05 600 512 600s81.9-15.62 113.14-46.86c62.48-62.48 62.48-163.79 0-226.27C593.9 295.62 552.95 280 512 280z"
    fill="black" p-id="72362"></path>
  <path
    d="M512 136c88 0 171.78 38.27 229.85 105.01C845.98 360.65 835.92 546 718.96 662.96L512 869.92 305.04 662.96C188.08 546 178.02 360.65 282.15 241.01 340.22 174.27 424 136 512 136m0-64c-102.23 0-204.45 42.33-278.13 126.99-128.08 147.17-112.04 371.26 25.92 509.22L489.37 937.8c6.25 6.25 14.44 9.37 22.63 9.37s16.38-3.12 22.63-9.37l229.59-229.59c137.96-137.96 154-362.05 25.92-509.22C716.45 114.33 614.23 72 512 72z"
    fill="black" p-id="72363"></path>
</svg>