<?xml version="1.0" standalone="no"?><!DOCTYPE svg PUBLIC "-//W3C//DTD SVG 1.1//EN" "http://www.w3.org/Graphics/SVG/1.1/DTD/svg11.dtd"><svg t="1691297319027" class="icon" viewBox="0 0 1024 1024" version="1.1" xmlns="http://www.w3.org/2000/svg" p-id="3708" xmlns:xlink="http://www.w3.org/1999/xlink" width="32" height="32"><path d="M791.98035 824m-20 0a20 20 0 1 0 40 0 20 20 0 1 0-40 0Z" fill="#000000" p-id="3709"></path><path d="M711.98035 72m-20 0a20 20 0 1 0 40 0 20 20 0 1 0-40 0Z" fill="#000000" p-id="3710"></path><path d="M311.98035 72m-20 0a20 20 0 1 0 40 0 20 20 0 1 0-40 0Z" fill="#000000" p-id="3711"></path><path d="M573.02035 899.32a20 20 0 0 0 25.28 12.68l124.84-41.6a20 20 0 1 0-12.64-38L585.66035 874a20 20 0 0 0-12.64 25.32z" fill="#000000" p-id="3712"></path><path d="M1016.64035 524.52l-108.4-88.7 104.9-54a20 20 0 0 0-2.46-36.64l-372-132a20 20 0 0 0-17.78 2.22L512.00035 288l-108.9-72.6a20 20 0 0 0-17.78-2.22l-372 132-0.52 0.22a20 20 0 0 0-2.22 36.26l0.26 0.16 104.92 54-108.44 88.7a20 20 0 0 0 5.32 34L132.00035 606v278a20 20 0 0 0 13.68 18.96l360 120a21.16 21.16 0 0 0 6.22 1 20.18 20.18 0 0 0 6.24-1h0.1l360-120A20 20 0 0 0 892.00035 884V606l119.4-47.46a20 20 0 0 0 5.24-34.02zM634.74035 254.2l318.98 113.18-83.4 42.98L557.10035 306zM70.24035 367.38l319-113.18 77.62 51.8-313.2 104.4zM58.94035 534l97.18-79.5 313.34 104.44-120.5 90.38zM492.00035 976.24L172.00035 869.58V622l172.62 68.62A20 20 0 0 0 364.00035 688l128-96z m20-445.32L215.24035 432 512.00035 333.08 808.74035 432z m340 338.66l-320 106.66V592l128 96a20 20 0 0 0 19.4 2.58L852.00035 622z m-176.98-220.32l-120.5-90.36 313.34-104.44L965.02035 534zM472.00035 80h20v20a20 20 0 0 0 40 0V80h20a20 20 0 0 0 0-40h-20V20a20 20 0 0 0-40 0v20h-20a20 20 0 0 0 0 40zM152.00035 172h20v20a20 20 0 0 0 40 0V172h20a20 20 0 1 0 0-40h-20V112a20 20 0 0 0-40 0v20H152.00035a20 20 0 0 0 0 40zM792.00035 172h20v20a20 20 0 0 0 40 0V172h20a20 20 0 0 0 0-40h-20V112a20 20 0 0 0-40 0v20h-20a20 20 0 0 0 0 40z" fill="#000000" p-id="3713"></path></svg>