<?xml version="1.0" standalone="no"?><!DOCTYPE svg PUBLIC "-//W3C//DTD SVG 1.1//EN" "http://www.w3.org/Graphics/SVG/1.1/DTD/svg11.dtd"><svg t="1691074233716" class="icon" viewBox="0 0 3313 1024" version="1.1" xmlns="http://www.w3.org/2000/svg" p-id="18059" xmlns:xlink="http://www.w3.org/1999/xlink" width="103.53125" height="32"><path d="M564.535652 521.794783c0-9.497971-5.936232-18.402319-13.05971-21.964058L340.146087 376.950725c-3.561739-1.78087-7.717101-3.561739-11.278841-3.561739l-1.78087 0c-3.561739 0-7.717101 1.78087-11.278841 3.561739l-213.704348 122.286377c-7.717101 3.561739-13.05971 13.05971-13.05971 21.964058l0 328.273623c0 3.561739 1.78087 9.497971 5.936232 11.278841 3.561739 1.78087 9.497971 1.78087 13.05971 0l126.441739-72.422029c7.717101-5.936232 13.05971-13.05971 13.05971-21.964058l0-153.748406c0-9.497971 5.936232-16.621449 13.05971-21.964058l54.01971-31.462029c3.561739-1.78087 9.497971-3.561739 13.05971-3.561739 3.561739 0 9.497971 1.78087 13.05971 3.561739l54.01971 31.462029c7.717101 3.561739 13.05971 13.05971 13.05971 21.964058l0 153.748406c0 9.497971 5.936232 16.621449 13.05971 21.964058L546.133333 861.347246c3.561739 1.78087 9.497971 1.78087 13.05971 0 3.561739-1.78087 5.936232-5.936232 5.936232-11.278841L565.129275 521.794783 564.535652 521.794783zM564.535652 521.794783" fill="#272636" p-id="18060"></path><path d="M1694.794203 71.234783c-3.561739-1.78087-9.497971-1.78087-13.05971 0-3.561739 1.78087-5.936232 5.936232-5.936232 11.278841l0 324.711884c0 3.561739-1.78087 5.936232-3.561739 7.717101-1.78087 1.78087-5.936232 1.78087-9.497971 0l-54.01971-29.681159c-7.717101-3.561739-18.402319-3.561739-26.11942 0l-211.329855 122.286377c-7.717101 3.561739-13.05971 13.05971-13.05971 21.964058l0 245.166377c0 9.497971 5.936232 16.621449 13.05971 21.964058l211.329855 122.286377c7.717101 3.561739 18.402319 3.561739 26.11942 0l211.329855-122.286377c7.717101-3.561739 13.05971-13.05971 13.05971-21.964058L1833.108406 163.84c0-9.497971-5.936232-18.402319-13.05971-21.964058L1694.794203 71.234783 1694.794203 71.234783zM1674.017391 692.758261c0 1.78087-1.78087 3.561739-3.561739 5.936232l-72.422029 42.74087c-1.78087 1.78087-3.561739 1.78087-5.936232 0l-72.422029-42.74087c-1.78087-1.78087-3.561739-3.561739-3.561739-5.936232l0-83.70087c0-1.78087 1.78087-3.561739 3.561739-5.936232l72.422029-42.74087c1.78087-1.78087 3.561739-1.78087 5.936232 0l72.422029 42.74087c1.78087 1.78087 3.561739 3.561739 3.561739 5.936232L1674.017391 692.758261 1674.017391 692.758261zM1674.017391 692.758261" fill="#272636" p-id="18061"></path><path d="M2451.663768 605.495652c7.717101-3.561739 13.05971-13.05971 13.05971-21.964058l0-59.362319c0-9.497971-5.936232-16.621449-13.05971-21.964058l-209.548986-120.505507c-7.717101-3.561739-18.402319-3.561739-26.11942 0l-211.329855 122.286377c-7.717101 3.561739-13.05971 13.05971-13.05971 21.964058l0 245.166377c0 9.497971 5.936232 18.402319 13.05971 21.964058l209.548986 120.505507c7.717101 3.561739 16.621449 3.561739 26.11942 0l128.222609-70.641159c3.561739-1.78087 7.717101-5.936232 7.717101-11.278841 0-3.561739-1.78087-9.497971-5.936232-11.278841l-213.704348-122.286377c-3.561739-1.78087-5.936232-7.717101-5.936232-11.278841l0-76.577391c0-3.561739 1.78087-9.497971 5.936232-11.278841l66.485797-39.17913c3.561739-1.78087 9.497971-1.78087 13.05971 0l66.485797 39.17913c3.561739 1.78087 5.936232 7.717101 5.936232 11.278841l0 59.362319c0 3.561739 1.78087 9.497971 5.936232 11.278841 3.561739 1.78087 9.497971 1.78087 13.05971 0L2451.663768 605.495652 2451.663768 605.495652zM2451.663768 605.495652" fill="#272636" p-id="18062"></path><path d="M948.609855 378.731594c7.717101-3.561739 18.402319-3.561739 26.11942 0l211.329855 122.286377c7.717101 3.561739 13.05971 13.05971 13.05971 21.964058l0 245.166377c0 9.497971-5.936232 16.621449-13.05971 21.964058l-211.329855 122.286377c-7.717101 3.561739-18.402319 3.561739-26.11942 0l-211.923478-122.286377c-7.717101-3.561739-13.05971-13.05971-13.05971-21.964058L723.626667 523.575652c0-9.497971 5.936232-16.621449 13.05971-21.964058L948.609855 378.731594 948.609855 378.731594zM948.609855 378.731594" fill="#272636" p-id="18063"></path><path d="M2863.638261 915.366957c-7.717101 0-14.84058-1.78087-20.183188-5.936232l-66.485797-39.17913c-9.497971-5.936232-5.936232-7.717101-1.78087-9.497971 13.05971-3.561739 16.621449-5.936232 29.681159-13.05971l5.936232 0 52.238841 29.681159c1.78087 1.78087 3.561739 1.78087 5.936232 0l200.051014-115.162899c1.78087-1.78087 3.561739-3.561739 3.561739-5.936232L3072.593623 529.511884c0-1.78087-1.78087-3.561739-3.561739-5.936232L2867.2 408.412754c-1.78087-1.78087-3.561739-1.78087-5.936232 0l-200.051014 115.162899c-1.78087 1.78087-3.561739 3.561739-3.561739 5.936232l0 230.325797c0 1.78087 1.78087 3.561739 3.561739 5.936232l54.01971 31.462029c29.681159 14.84058 48.083478-1.78087 48.083478-20.183188L2763.315942 547.914203c0-3.561739 1.78087-5.936232 5.936232-5.936232l26.11942 0c3.561739 0 5.936232 1.78087 5.936232 5.936232l0 227.951304c0 39.17913-21.964058 62.924058-59.362319 62.924058-11.278841 0-20.183188 0-46.302609-13.05971l-52.238841-29.681159c-13.05971-7.717101-20.183188-21.964058-20.183188-36.804638L2623.22087 529.511884c0-14.84058 7.717101-29.681159 20.183188-36.804638L2843.455072 376.950725c13.05971-7.717101 29.681159-7.717101 42.74087 0l200.051014 115.162899c13.05971 7.717101 20.183188 21.964058 20.183188 36.804638l0 230.325797c0 14.84058-7.717101 29.681159-20.183188 36.804638l-200.051014 115.162899C2876.104348 913.586087 2870.761739 915.366957 2863.638261 915.366957L2863.638261 915.366957zM2863.638261 915.366957" fill="#272636" p-id="18064"></path><path d="M2924.781449 757.463188c-87.262609 0-105.664928-40.96-105.664928-74.202899 0-3.561739 1.78087-5.936232 5.936232-5.936232l26.11942 0c3.561739 0 5.936232 1.78087 5.936232 5.936232 3.561739 26.11942 14.84058 39.17913 68.86029 39.17913 42.74087 0 59.362319-9.497971 59.362319-31.462029 0-13.05971-5.936232-21.964058-70.641159-29.681159-54.01971-5.936232-89.043478-16.621449-89.043478-61.143188 0-40.96 33.242899-64.704928 90.824348-64.704928 62.924058 0 96.76058 21.964058 100.322319 70.641159 0 1.78087 0 3.561739-1.78087 3.561739-1.78087 1.78087-1.78087 1.78087-3.561739 1.78087l-26.11942 0c-1.78087 0-5.936232-1.78087-5.936232-3.561739-5.936232-27.90029-20.183188-36.804638-62.924058-36.804638-46.302609 0-52.238841 16.621449-52.238841 27.90029 0 14.84058 5.936232 18.402319 68.86029 27.90029 61.143188 7.717101 90.824348 20.183188 90.824348 62.924058C3022.729275 731.343768 2987.705507 757.463188 2924.781449 757.463188L2924.781449 757.463188zM2924.781449 757.463188" fill="#272636" p-id="18065"></path><path d="M2224.89971 594.216812l5.936232 0 40.96 24.338551c1.78087 0 1.78087 1.78087 1.78087 3.561739l0 46.302609c0 1.78087-1.78087 3.561739-1.78087 3.561739l-40.96 24.338551-5.936232 0-40.96-24.338551c-1.78087 0-1.78087-1.78087-1.78087-3.561739l0-46.302609c0-1.78087 1.78087-3.561739 1.78087-3.561739L2224.89971 594.216812 2224.89971 594.216812zM2224.89971 594.216812" fill="#272636" p-id="18066"></path><path d="M3241.776232 438.687536c0 20.183188-16.621449 39.17913-39.17913 39.17913-20.183188 0-39.17913-16.621449-39.17913-39.17913 0-21.964058 18.402319-39.17913 39.17913-39.17913C3225.154783 401.289275 3241.776232 417.910725 3241.776232 438.687536L3241.776232 438.687536zM3171.728696 438.687536c0 18.402319 14.84058 31.462029 31.462029 31.462029 18.402319 0 31.462029-14.84058 31.462029-31.462029 0-18.402319-14.84058-31.462029-31.462029-31.462029C3186.569275 406.631884 3171.728696 421.472464 3171.728696 438.687536L3171.728696 438.687536zM3190.131014 417.910725l14.84058 0c5.936232 0 14.84058 0 14.84058 11.278841 0 7.717101-5.936232 9.497971-7.717101 11.278841 5.936232 0 5.936232 3.561739 7.717101 9.497971 0 3.561739 1.78087 9.497971 1.78087 11.278841l-9.497971 0c0-1.78087-1.78087-13.05971-1.78087-13.05971 0-1.78087-1.78087-3.561739-3.561739-3.561739l-7.717101 0 0 16.621449-9.497971 0L3190.131014 417.910725 3190.131014 417.910725 3190.131014 417.910725zM3197.254493 436.313043l7.717101 0c5.936232 0 7.717101-3.561739 7.717101-5.936232 0-5.936232-3.561739-5.936232-5.936232-5.936232l-7.717101 0 0 11.278841L3197.254493 436.313043 3197.254493 436.313043zM3197.254493 436.313043" fill="#272636" p-id="18067"></path></svg>