<?xml version="1.0" standalone="no"?><!DOCTYPE svg PUBLIC "-//W3C//DTD SVG 1.1//EN" "http://www.w3.org/Graphics/SVG/1.1/DTD/svg11.dtd"><svg t="1699189735175" class="icon" viewBox="0 0 1024 1024" version="1.1" xmlns="http://www.w3.org/2000/svg" p-id="10003" xmlns:xlink="http://www.w3.org/1999/xlink" width="32" height="32"><path d="M822.08 289.81a133.723 133.723 0 0 0 32.96-88.04c-0.92-75.61-62.95-136.16-138.56-135.24-45.63 0.55-87.99 23.81-112.95 62.01a365.108 365.108 0 0 1 218.55 161.27zM419.15 128.03c-41.66-63.1-126.58-80.49-189.69-38.83-37.89 25.01-60.91 67.17-61.48 112.57-0.02 31.68 11.2 62.35 31.66 86.54a365.218 365.218 0 0 1 219.51-160.28z m423.34 199.74c77.86 169.16 13.59 369.77-148.07 462.21-42.57 30.96-56.93 56.88-62.93 83.49-13.81 60.63 17.46 107.6 91.59 105.9 93.09-2.1 198.99-113.05 225.45-240.11 41.73-199.94-30.21-332-106.04-411.49z m-92.04 213.95c38.42-28.66 35.02-97.34-7.7-153.37s-108.45-78.29-146.92-49.62-35.02 97.34 7.7 153.42 108.45 78.23 146.92 49.57zM278.04 388.35c-42.67 56.03-46.12 124.71-7.65 153.37s104.2 6.45 146.87-49.57 46.12-124.76 7.65-153.42-104.21-6.46-146.87 49.62z m144.31 255.11c-15.46 15.71-26.91 45.02-19.61 70.48 12.21 42.62 78.04 60.03 100.05 17.31 13.46 68.18-104.8 104.3-201.14 40.47-98.52-65.11-157.41-175.65-156.47-293.73a357.584 357.584 0 0 1 31.81-147.77c-84.74 88.84-154.07 284.43-84.34 449.5 50.32 118.8 165.07 215.7 325.7 197.74 198.24-22.16 233.41-219.75 166.83-315.14-40.12-57.43-118.15-64.48-162.82-18.91v0.05z" fill="#000000" p-id="10004"></path></svg>