<?xml version="1.0" standalone="no"?><!DOCTYPE svg PUBLIC "-//W3C//DTD SVG 1.1//EN" "http://www.w3.org/Graphics/SVG/1.1/DTD/svg11.dtd"><svg t="1690904229447" class="icon" viewBox="0 0 1024 1024" version="1.1" xmlns="http://www.w3.org/2000/svg" p-id="22257" xmlns:xlink="http://www.w3.org/1999/xlink" width="32" height="32"><path d="M998.37545513 249.11329368a20.8196607 20.8196607 0 0 0-24.70203078-16.0348481l-60.49974823 12.8881243a1216.42160015 1216.42160015 0 0 0 13.68351849-19.69689771 619.51622686 619.51622686 0 0 0 15.72739525-24.42071764 306.14336426 306.14336426 0 0 0 7.49089549-13.00139639l3.60105695-7.0427861c1.19495841-2.43223825 2.3251899-5.25781698 3.45417664-7.89792821a19.11560022 19.11560022 0 0 0-24.90243526-25.18872737l-3.33965979 1.39038391c-4.75120441 1.67045228-9.42150017 3.4068762-14.14532011 5.00388832-4.81717606 1.43643957-9.54099601 2.98739601-14.37186431 4.32301097-4.88314772 1.22981136-9.67418409 2.59281078-14.57226879 3.70188156-4.93667191 1.03563061-9.78745618 2.21067305-14.73159658 3.13303157-4.9852171 0.86136585-9.8833018 1.85094077-14.87972164 2.61272675-5.01135681 0.7082618-9.96918944 1.50987974-14.98054625 2.14470139-3.31974382 0.42072494-6.65442462 0.76178598-9.98163693 1.11529451a181.01379282 181.01379282 0 0 0-44.14375506-32.23151346c-21.78309591-11.31102815-45.59513163-17.95300528-69.38102761-20.26450295-23.80581197-2.33141364-47.63153991-0.46055689-70.44155319 4.88439248a228.05034302 228.05034302 0 0 0-64.83022769 26.25796619c-20.13131487 12.03298219-38.53242956 27.30728905-53.98598017 45.54783119-15.44110313 18.19946545-27.82883859 39.45354333-35.7392143 62.39052095-7.97136836 22.91083791-11.33841262 47.32533181-10.48327049 71.09131184 0.20787297 6.68803282 0.78917044 13.30262548 1.63684405 19.85000175-3.24007991-0.36720077-6.48762834-0.71448556-9.72770825-1.15637122a474.01385937 474.01385937 0 0 1-27.58113368-4.30931873 490.93123404 490.93123404 0 0 1-27.36703696-5.69223416 555.59466545 555.59466545 0 0 1-53.83909986-15.52823552 577.76363335 577.76363335 0 0 1-52.26947222-20.87940862C244.50856114 270.84162065 181.63134359 226.08918366 125.75459069 173.38653903a20.12509113 20.12509113 0 0 0-33.64181334 6.42041193l-0.50785732 1.32939123c-2.25797348 5.90633086-4.40889861 11.87365439-6.11295909 17.98038974-1.70406048 6.09926686-3.20771646 12.27321861-4.25703931 18.52061052-1.16881869 6.22747594-1.93682842 12.52714726-2.41107752 18.82806337-0.54768927 6.30713983-0.68834583 12.62797188-0.63482167 18.93511171 0.09957986 6.30091609 0.4481094 12.60183217 1.04185437 18.87536381a250.90392251 250.90392251 0 0 0 2.64633497 18.66749081 246.45768145 246.45768145 0 0 0 9.6542681 36.34665148 236.20344463 236.20344463 0 0 0 6.85607385 17.55344106 219.52630641 219.52630641 0 0 0 8.17052809 17.06425497 218.7383807 218.7383807 0 0 0 9.5148563 16.50909721 204.66525599 204.66525599 0 0 0 10.93760364 15.8829888 202.1085429 202.1085429 0 0 0 6.01960298 7.65520227c-5.02380429 0.67589835-10.07001405 1.22981136-15.1336503 1.59701212-4.54333143 0.32861356-9.09911035 0.50163359-13.42958982 0.42196968-2.23183376 0-4.34915069-0.09335612-6.35444027-0.26762088-2.21067305-0.08713239-3.76785322-0.42072494-5.71215013-0.61490569a12.70141204 12.70141204 0 0 0-18.26668186 11.13800813l-0.01991597 1.00202241c-0.14065657 6.32083205-0.1207406 12.6951883 0.4481094 19.10937649a144.47793961 144.47793961 0 0 0 2.97868278 19.20273261 141.552781 141.552781 0 0 0 13.9984398 36.82712434c6.34697178 11.61350199 14.25112372 22.33078518 23.07763419 31.97136106a214.08675616 214.08675616 0 0 0 28.79600805 26.03017723c18.78325243 14.20506803 39.06020285 25.47004049 59.74543074 35.09194517-1.11529452 0.32736881-2.22436528 0.68087734-3.34712827 0.98833016-2.54551035 0.66842986-5.08479696 1.45013181-7.65644704 1.97043663-2.56542633 0.54146553-5.14454487 1.25719582-7.72988718 1.6841445-5.17815308 0.99579867-10.39738287 1.80488509-15.63528387 2.41232227-5.237901 0.57382898-10.46957827 0.88875031-15.72864 1.05554661a19.77656159 19.77656159 0 0 0-19.92966565 29.08478965l0.8675896 1.58331988c10.57040289 19.3160047 24.66842256 35.92592653 40.08960972 50.30401461 15.47346658 14.40547251 32.37092528 26.69985185 49.92934533 37.52916238a443.59345474 443.59345474 0 0 0 50.94754949 26.71976783c-1.31072 0.86136585-2.5803633 1.77003214-3.8960623 2.61272676a388.29177557 388.29177557 0 0 1-57.28705276 30.39302017c-19.83755427 8.4257015-40.32984615 15.0203782-61.03499001 18.97618842-5.15823711 0.96219046-10.34385869 1.77003214-15.54690675 2.43846199a257.41395632 257.41395632 0 0 1-15.54192775 1.34308345 233.88821274 233.88821274 0 0 1-15.45355061 0.13941182 211.15910807 211.15910807 0 0 1-15.27306211-1.14143423h-0.01493698l-0.21285197-0.0410767a24.68087005 24.68087005 0 0 0-14.76644954 46.37683359c20.09770667 10.36875365 40.81654275 20.31802713 62.38429721 29.00263628a479.04513215 479.04513215 0 0 0 66.78821684 21.54908323 494.69410826 494.69410826 0 0 0 69.2727345 11.46413219c11.59234128 0.9422745 23.19090629 1.81110883 34.74341562 2.12478541 5.75322682 0.31492133 11.63839696 0.32861356 17.50614062 0.3684455 5.81919847 0.02613971 11.8997941 0.15310405 17.29079917-0.03983193l16.62361406-0.37466926 17.65177617-0.9758827c11.54628559-0.44064091 23.05149447-1.86338826 34.57661935-2.94631932 22.9905018-2.80566275 45.96855612-6.39427222 68.61924162-11.8325777 22.72910465-5.02504905 45.0847848-11.93340231 67.10064866-19.79149857 22.01586385-7.92282317 43.40312979-17.6318602 64.34975484-28.24209505 20.69145163-11.10315518 40.96964681-23.10999764 60.1387712-36.82712432 19.04216009-13.84409102 37.66359521-28.42258355 54.62827031-44.83956938 17.0779472-16.2564133 33.31942351-33.46754857 47.91907678-52.00185132 7.61661508-9.03936243 14.25236847-18.79569991 21.28021758-28.25578729 6.4403279-9.86089633 13.26279354-19.50271696 19.10937649-29.7245903 12.34043503-20.08525918 22.85606898-41.17876452 32.46428141-62.60586241 9.55468825-21.48684581 17.47253243-43.57614982 24.49415779-65.92560623 6.61459267-22.44281253 12.54083951-45.10594553 16.67713824-68.07030762 2.33888213-11.33965735 4.0354741-23.18468255 5.74575833-35.00481276 0.9758827-6.07312715 1.49743226-11.47782443 2.09117721-16.98334633l0.39458522-3.55500125c1.59078837-1.44390807 3.26124065-2.83304721 4.77112038-4.31554249l8.17799659-7.93776014c2.76583081-2.59903453 5.27150922-5.45199773 7.92406792-8.16554911 2.57911855-2.76583081 5.27150922-5.41838951 7.72366343-8.28504494l7.47595852-8.49167316c2.51937063-2.79321526 4.80472859-5.79305876 7.20958237-8.67216168 2.38493781-2.90648737 4.78356786-5.78683503 7.01540164-8.80037074a431.57416479 431.57416479 0 0 0 25.68289245-36.77360015 409.56576942 409.56576942 0 0 0 11.40562902-19.33592068c1.7974166-3.3346808 3.60105694-6.5946767 5.31134116-10.02271362a268.23330887 268.23330887 0 0 0 5.23167727-10.81063932l1.21611913-2.63264274a20.84580043 20.84580043 0 0 0 1.44390806-13.04869682z m-92.11137703 55.39628003c-2.31772141 2.33141364-4.76987564 4.52341547-7.1946454 6.73408851-2.43970675 2.18577808-4.77734412 4.48358351-7.31663073 6.56853698l-7.46973477 6.34821653c-2.45215422 2.15092513-5.11093667 4.06161382-7.64275481 6.1054906-2.59281078 1.97168137-5.05865725 4.10269052-7.72490817 5.94740755l-7.89170448 5.68476566c-5.22420877 3.79648243-10.74217815 7.14983444-16.06098779 10.74466766a31.28301523 31.28301523 0 0 0-13.53041444 22.86976122l-0.09957987 1.11653924-1.50987973 16.5626214c-0.49416509 5.52668261-0.96219046 11.1653926-1.69783673 16.05600881-1.32192273 10.14220945-2.54551035 20.27072669-4.51594697 30.70047301-3.35459677 20.76613652-8.32487689 41.14515632-13.87147549 61.32875063-5.91255461 20.05787472-12.61427966 39.88173676-20.7449758 59.07824561-8.19791257 19.14173995-17.14516361 38.00341151-27.74170621 55.88920037-4.95783263 9.15387929-10.87038723 17.70032137-16.3622169 26.53305559-6.06067966 8.41200927-11.71930561 17.15138735-18.28784258 25.18872737-12.52714726 16.56262139-26.56541903 31.90289991-41.32564484 46.48263718-14.63824046 14.73284133-30.83366108 27.80767787-47.39752721 40.34976213-16.69580945 12.40640669-34.46210249 23.33156285-52.63542822 33.54596772-18.45463886 9.72148452-37.33622641 18.74964422-56.93976798 26.17830229-19.60354158 7.37637865-39.58050766 13.99097132-60.07902328 18.88283229-20.39146726 5.29764893-41.24473618 8.9123981-62.2038087 11.85249367-10.53057094 1.15512646-21.02006518 2.67869842-31.63776851 3.25377216l-15.53445926 1.16259496-16.61614556 0.67465359c-5.68601041 0.3012291-10.68989872 0.22778894-15.96140795 0.30745285-5.21798503 0.05352418-10.42352258 0.14688031-15.74855598-0.04730045-10.62392706-0.10704836-21.14702951-0.7082618-31.67013196-1.36922318a442.25783978 442.25783978 0 0 1-62.04323615-9.1264948 370.58647521 370.58647521 0 0 1-15.16103476-3.66204961 390.62318922 390.62318922 0 0 0 33.07296333-9.80861692 449.29315739 449.29315739 0 0 0 68.59185719-30.61334062c21.95611594-12.08650636 43.02846054-25.85093348 63.07264304-41.89325006a33.50115677 33.50115677 0 0 0-11.85249368-58.38243131l-2.57289482-0.7082618-0.00622374-0.01244749c-34.96995981-5.83413547-69.90133243-15.98256866-102.13160115-30.71540998-16.08214853-7.39007089-31.49711195-16.01493212-45.44825132-26.13722561-0.56013676-0.40827745-1.07546256-0.8551421-1.63684406-1.26341955 1.7177527-0.1132721 3.43550542-0.23401268 5.15201337-0.33359256a241.74755373 241.74755373 0 0 0 19.53632518-2.13847765 243.71176661 243.71176661 0 0 0 38.98551794-9.04683092 186.53176221 186.53176221 0 0 0 19.50396171-7.39629463c3.25377215-1.32939123 6.51376805-3.07950738 9.77500869-4.69021173 3.26124065-1.63684406 6.53492877-3.6744971 9.80114843-5.5391301a32.15184957 32.15184957 0 0 0-5.53166163-58.31521489l-7.07639429-2.43970674c-21.94864743-3.17286351-43.52262564-7.28177778-64.38834204-13.00762014-20.83335294-5.73953458-41.00449974-13.08852877-59.33715328-22.97058584-18.30153482-9.87583331-34.72474439-22.39675684-46.92452283-38.27850089a107.63836778 107.63836778 0 0 1-14.86602941-26.13100185 107.50393497 107.50393497 0 0 1-2.75338333-7.87676749c2.88781615 1.00202241 5.72584236 2.09740094 8.65971419 2.95254305a287.4211045 287.4211045 0 0 0 31.42242705 7.36268643 247.83188361 247.83188361 0 0 0 32.85264288 3.72926601c2.80566275 0.19915974 5.80052726 0.12571957 8.73315434 0.1593278 2.90026363 0.08090864 6.05943491-0.17426477 9.15263453-0.33359256 3.01353572-0.07966389 6.50878906-0.66842986 9.82853288-1.09537853 3.3010726-0.41450119 7.3365467-1.55095643 11.00357531-2.44593049 10.20320213-2.56542633 19.15667693-10.10860125 22.85855848-20.79227623v-0.00746851a32.25142944 32.25142944 0 0 0-19.93091039-41.02317097l-3.98941842-1.3829154c-3.11187085-1.07670732-6.46771236-2.17208585-9.93433649-4.10269052-3.47533735-1.7177527-6.99548566-4.0018659-10.52310244-6.41418819-7.02287012-5.03127279-13.89139146-11.21144829-20.28566367-18.11357782-12.80846039-13.84409102-23.75851153-30.45401284-32.06471719-48.24022184a193.09407543 193.09407543 0 0 1-10.4160541-27.56744144 202.48819115 202.48819115 0 0 1-3.52761679-14.28473193 186.8329913 186.8329913 0 0 1-2.28535795-14.47891267 152.46922394 152.46922394 0 0 1-0.98833017-14.57849254 124.47483381 124.47483381 0 0 1-0.01991599-6.70172505c48.52775871 46.62951749 103.04026743 87.91408562 163.65453251 119.84437a633.6005543 633.6005543 0 0 0 55.97135377 26.1322466 614.62561063 614.62561063 0 0 0 58.52184311 20.54457132 555.65192388 555.65192388 0 0 0 30.03328791 8.05850074 543.21937747 543.21937747 0 0 0 30.4403206 6.54115252 604.96387404 604.96387404 0 0 0 30.74777344 5.02380429c10.29033452 1.44390807 20.61925622 2.53306287 30.96187017 3.53508528a33.80736486 33.80736486 0 0 0 34.51687141-44.57194849l-0.22032045-0.64726913c-5.45946621-16.06970105-8.99330675-32.39333075-9.44763989-48.40826287-0.5613815-16.00746363 1.65676003-31.69004795 6.76769672-46.40919704 10.06254556-29.46568266 32.11201762-54.96186287 60.27320403-71.718665 28.05662754-16.85762675 61.97104077-24.95471469 93.65486496-21.81421462 15.82697513 1.54348795 31.02784182 5.87272266 44.61800417 12.92048776 13.61754682 7.03033861 25.56962036 16.81779479 35.49150936 28.81841351l7.86432 6.72786477a26.41231499 26.41231499 0 0 0 24.91488273 5.04496501 756.9937018 756.9937018 0 0 0 32.05102496-10.70483571c5.29889367-1.92313618 10.58285038-4.02800562 15.84191211-6.03329518 5.25781698-2.06379274 10.46833353-4.37529041 15.68133955-6.5536 2.94009557-1.26341957 5.85903043-2.61895051 8.7729863-3.98941843a1195.30942359 1195.30942359 0 0 1-24.30122182 44.76612924h-0.00622373a12.40018294 12.40018294 0 0 0 9.88828079 20.17737056l2.47829395-0.05352419 47.34524779-1.02193837a386.63501554 386.63501554 0 0 1-25.40904783 26.90648006z" fill="black" p-id="22258"></path></svg>